<svg width="173" height="24" viewBox="0 0 173 24" fill="none" xmlns="http://www.w3.org/2000/svg">
<path d="M7.98 8.08C9.31333 8.08 10.3867 8.48 11.2 9.28C12.0267 10.08 12.44 11.2667 12.44 12.84V19H9.32V13.32C9.32 12.4667 9.13333 11.8333 8.76 11.42C8.38667 10.9933 7.84667 10.78 7.14 10.78C6.35333 10.78 5.72667 11.0267 5.26 11.52C4.79333 12 4.56 12.72 4.56 13.68V19H1.44V4.16H4.56V9.36C4.97333 8.94667 5.47333 8.63333 6.06 8.42C6.64667 8.19333 7.28667 8.08 7.98 8.08ZM20.5053 19.16C19.372 19.16 18.352 18.9267 17.4453 18.46C16.552 17.98 15.852 17.32 15.3453 16.48C14.8386 15.64 14.5853 14.6867 14.5853 13.62C14.5853 12.5533 14.8386 11.6 15.3453 10.76C15.852 9.92 16.552 9.26667 17.4453 8.8C18.352 8.32 19.372 8.08 20.5053 8.08C21.6386 8.08 22.652 8.32 23.5453 8.8C24.4386 9.26667 25.1386 9.92 25.6453 10.76C26.152 11.6 26.4053 12.5533 26.4053 13.62C26.4053 14.6867 26.152 15.64 25.6453 16.48C25.1386 17.32 24.4386 17.98 23.5453 18.46C22.652 18.9267 21.6386 19.16 20.5053 19.16ZM20.5053 16.6C21.3053 16.6 21.9586 16.3333 22.4653 15.8C22.9853 15.2533 23.2453 14.5267 23.2453 13.62C23.2453 12.7133 22.9853 11.9933 22.4653 11.46C21.9586 10.9133 21.3053 10.64 20.5053 10.64C19.7053 10.64 19.0453 10.9133 18.5253 11.46C18.0053 11.9933 17.7453 12.7133 17.7453 13.62C17.7453 14.5267 18.0053 15.2533 18.5253 15.8C19.0453 16.3333 19.7053 16.6 20.5053 16.6ZM33.6108 19.16C32.4774 19.16 31.4574 18.9267 30.5508 18.46C29.6574 17.98 28.9574 17.32 28.4508 16.48C27.9441 15.64 27.6908 14.6867 27.6908 13.62C27.6908 12.5533 27.9441 11.6 28.4508 10.76C28.9574 9.92 29.6574 9.26667 30.5508 8.8C31.4574 8.32 32.4774 8.08 33.6108 8.08C34.7441 8.08 35.7574 8.32 36.6508 8.8C37.5441 9.26667 38.2441 9.92 38.7508 10.76C39.2574 11.6 39.5108 12.5533 39.5108 13.62C39.5108 14.6867 39.2574 15.64 38.7508 16.48C38.2441 17.32 37.5441 17.98 36.6508 18.46C35.7574 18.9267 34.7441 19.16 33.6108 19.16ZM33.6108 16.6C34.4108 16.6 35.0641 16.3333 35.5708 15.8C36.0908 15.2533 36.3508 14.5267 36.3508 13.62C36.3508 12.7133 36.0908 11.9933 35.5708 11.46C35.0641 10.9133 34.4108 10.64 33.6108 10.64C32.8108 10.64 32.1508 10.9133 31.6308 11.46C31.1108 11.9933 30.8508 12.7133 30.8508 13.62C30.8508 14.5267 31.1108 15.2533 31.6308 15.8C32.1508 16.3333 32.8108 16.6 33.6108 16.6ZM48.1363 8.08C49.4696 8.08 50.5429 8.48 51.3563 9.28C52.1829 10.08 52.5963 11.2667 52.5963 12.84V19H49.4763V13.32C49.4763 12.4667 49.2896 11.8333 48.9163 11.42C48.5429 10.9933 48.0029 10.78 47.2963 10.78C46.5096 10.78 45.8829 11.0267 45.4163 11.52C44.9496 12 44.7163 12.72 44.7163 13.68V19H41.5963V8.24H44.5763V9.5C44.9896 9.04667 45.5029 8.7 46.1163 8.46C46.7296 8.20667 47.4029 8.08 48.1363 8.08ZM66.5016 4.16V19H63.5216V17.76C62.7482 18.6933 61.6282 19.16 60.1616 19.16C59.1482 19.16 58.2282 18.9333 57.4016 18.48C56.5882 18.0267 55.9482 17.38 55.4816 16.54C55.0149 15.7 54.7816 14.7267 54.7816 13.62C54.7816 12.5133 55.0149 11.54 55.4816 10.7C55.9482 9.86 56.5882 9.21333 57.4016 8.76C58.2282 8.30667 59.1482 8.08 60.1616 8.08C61.5349 8.08 62.6082 8.51333 63.3816 9.38V4.16H66.5016ZM60.7016 16.6C61.4882 16.6 62.1416 16.3333 62.6616 15.8C63.1816 15.2533 63.4416 14.5267 63.4416 13.62C63.4416 12.7133 63.1816 11.9933 62.6616 11.46C62.1416 10.9133 61.4882 10.64 60.7016 10.64C59.9016 10.64 59.2416 10.9133 58.7216 11.46C58.2016 11.9933 57.9416 12.7133 57.9416 13.62C57.9416 14.5267 58.2016 15.2533 58.7216 15.8C59.2416 16.3333 59.9016 16.6 60.7016 16.6ZM74.8092 16.66C75.3692 16.66 75.8626 16.58 76.2892 16.42C76.7292 16.2467 77.1359 15.98 77.5092 15.62L79.1692 17.42C78.1559 18.58 76.6759 19.16 74.7292 19.16C73.5159 19.16 72.4426 18.9267 71.5092 18.46C70.5759 17.98 69.8559 17.32 69.3492 16.48C68.8426 15.64 68.5892 14.6867 68.5892 13.62C68.5892 12.5667 68.8359 11.62 69.3292 10.78C69.8359 9.92667 70.5226 9.26667 71.3892 8.8C72.2692 8.32 73.2559 8.08 74.3492 8.08C75.3759 8.08 76.3092 8.3 77.1492 8.74C77.9892 9.16667 78.6559 9.79333 79.1492 10.62C79.6559 11.4333 79.9092 12.4 79.9092 13.52L71.9492 15.06C72.1759 15.5933 72.5292 15.9933 73.0092 16.26C73.5026 16.5267 74.1026 16.66 74.8092 16.66ZM74.3492 10.44C73.5626 10.44 72.9226 10.6933 72.4292 11.2C71.9359 11.7067 71.6759 12.4067 71.6492 13.3L76.8892 12.28C76.7426 11.72 76.4426 11.2733 75.9892 10.94C75.5359 10.6067 74.9892 10.44 74.3492 10.44ZM92.4911 8.24L87.9511 19H84.7311L80.2111 8.24H83.4311L86.4111 15.56L89.4911 8.24H92.4911Z" fill="#3E7BFA"/>
<path d="M97.52 9.88C98.24 8.76 99.5067 8.2 101.32 8.2V10.58C101.107 10.54 100.913 10.52 100.74 10.52C99.7667 10.52 99.0067 10.8067 98.46 11.38C97.9133 11.94 97.64 12.7533 97.64 13.82V19H95.14V8.32H97.52V9.88ZM108.423 17.02C109.583 17.02 110.55 16.6333 111.323 15.86L112.643 17.4C112.176 17.9733 111.576 18.4067 110.843 18.7C110.11 18.9933 109.283 19.14 108.363 19.14C107.19 19.14 106.156 18.9067 105.263 18.44C104.37 17.9733 103.676 17.3267 103.183 16.5C102.703 15.66 102.463 14.7133 102.463 13.66C102.463 12.62 102.696 11.6867 103.163 10.86C103.643 10.02 104.296 9.36667 105.123 8.9C105.963 8.43333 106.91 8.2 107.963 8.2C108.963 8.2 109.87 8.42 110.683 8.86C111.51 9.28667 112.163 9.90667 112.643 10.72C113.123 11.52 113.363 12.46 113.363 13.54L105.183 15.14C105.436 15.7533 105.843 16.22 106.403 16.54C106.963 16.86 107.636 17.02 108.423 17.02ZM107.963 10.2C107.043 10.2 106.296 10.5 105.723 11.1C105.163 11.7 104.883 12.5067 104.883 13.52V13.54L110.923 12.38C110.75 11.7267 110.396 11.2 109.863 10.8C109.343 10.4 108.71 10.2 107.963 10.2ZM119.065 19.14C118.198 19.14 117.352 19.0267 116.525 18.8C115.698 18.5733 115.038 18.2867 114.545 17.94L115.505 16.04C115.985 16.36 116.558 16.62 117.225 16.82C117.905 17.0067 118.572 17.1 119.225 17.1C120.718 17.1 121.465 16.7067 121.465 15.92C121.465 15.5467 121.272 15.2867 120.885 15.14C120.512 14.9933 119.905 14.8533 119.065 14.72C118.185 14.5867 117.465 14.4333 116.905 14.26C116.358 14.0867 115.878 13.7867 115.465 13.36C115.065 12.92 114.865 12.3133 114.865 11.54C114.865 10.5267 115.285 9.72 116.125 9.12C116.978 8.50667 118.125 8.2 119.565 8.2C120.298 8.2 121.032 8.28667 121.765 8.46C122.498 8.62 123.098 8.84 123.565 9.12L122.605 11.02C121.698 10.4867 120.678 10.22 119.545 10.22C118.812 10.22 118.252 10.3333 117.865 10.56C117.492 10.7733 117.305 11.06 117.305 11.42C117.305 11.82 117.505 12.1067 117.905 12.28C118.318 12.44 118.952 12.5933 119.805 12.74C120.658 12.8733 121.358 13.0267 121.905 13.2C122.452 13.3733 122.918 13.6667 123.305 14.08C123.705 14.4933 123.905 15.08 123.905 15.84C123.905 16.84 123.472 17.64 122.605 18.24C121.738 18.84 120.558 19.14 119.065 19.14ZM136.398 8.32V19H134.018V17.64C133.618 18.12 133.118 18.4933 132.518 18.76C131.918 19.0133 131.271 19.14 130.578 19.14C129.151 19.14 128.025 18.7467 127.198 17.96C126.385 17.16 125.978 15.98 125.978 14.42V8.32H128.478V14.08C128.478 15.04 128.691 15.76 129.118 16.24C129.558 16.7067 130.178 16.94 130.978 16.94C131.871 16.94 132.578 16.6667 133.098 16.12C133.631 15.56 133.898 14.76 133.898 13.72V8.32H136.398ZM153.151 8.2C154.498 8.2 155.565 8.59333 156.351 9.38C157.138 10.1533 157.531 11.32 157.531 12.88V19H155.031V13.2C155.031 12.2667 154.825 11.5667 154.411 11.1C153.998 10.62 153.405 10.38 152.631 10.38C151.791 10.38 151.118 10.66 150.611 11.22C150.105 11.7667 149.851 12.5533 149.851 13.58V19H147.351V13.2C147.351 12.2667 147.145 11.5667 146.731 11.1C146.318 10.62 145.725 10.38 144.951 10.38C144.098 10.38 143.418 10.6533 142.911 11.2C142.418 11.7467 142.171 12.54 142.171 13.58V19H139.671V8.32H142.051V9.68C142.451 9.2 142.951 8.83333 143.551 8.58C144.151 8.32667 144.818 8.2 145.551 8.2C146.351 8.2 147.058 8.35333 147.671 8.66C148.298 8.95333 148.791 9.39333 149.151 9.98C149.591 9.42 150.158 8.98667 150.851 8.68C151.545 8.36 152.311 8.2 153.151 8.2ZM165.904 17.02C167.064 17.02 168.03 16.6333 168.804 15.86L170.124 17.4C169.657 17.9733 169.057 18.4067 168.324 18.7C167.59 18.9933 166.764 19.14 165.844 19.14C164.67 19.14 163.637 18.9067 162.744 18.44C161.85 17.9733 161.157 17.3267 160.664 16.5C160.184 15.66 159.944 14.7133 159.944 13.66C159.944 12.62 160.177 11.6867 160.644 10.86C161.124 10.02 161.777 9.36667 162.604 8.9C163.444 8.43333 164.39 8.2 165.444 8.2C166.444 8.2 167.35 8.42 168.164 8.86C168.99 9.28667 169.644 9.90667 170.124 10.72C170.604 11.52 170.844 12.46 170.844 13.54L162.664 15.14C162.917 15.7533 163.324 16.22 163.884 16.54C164.444 16.86 165.117 17.02 165.904 17.02ZM165.444 10.2C164.524 10.2 163.777 10.5 163.204 11.1C162.644 11.7 162.364 12.5067 162.364 13.52V13.54L168.404 12.38C168.23 11.7267 167.877 11.2 167.344 10.8C166.824 10.4 166.19 10.2 165.444 10.2Z" fill="#555770"/>
</svg>
