<svg width="24" height="24" viewBox="0 0 24 24" fill="none" xmlns="http://www.w3.org/2000/svg">
<g clip-path="url(#clip0)">
<path d="M13.848 8.85094C13.776 8.73951 13.6937 8.62636 13.608 8.50808C13.2683 8.02846 12.8646 7.5976 12.408 7.22751C12.3993 7.21957 12.3901 7.21213 12.3806 7.20522L12.3548 7.20008C12.312 7.17094 12.2897 7.15894 12.2897 7.15894C12.2415 7.13069 12.1896 7.10934 12.1354 7.09551C12.0909 7.08563 12.0455 7.08046 12 7.08008C11.9636 7.08018 11.9273 7.08479 11.892 7.09379C11.8033 7.11872 11.7205 7.16129 11.6486 7.21894C11.6211 7.23779 11.5886 7.26351 11.5543 7.29265C11.0258 7.74464 10.564 8.26929 10.1828 8.85094C9.59785 9.73411 9.28437 10.7693 9.28113 11.8287C9.28094 12.5439 9.45075 13.249 9.77656 13.8858L9.8297 13.9869C9.85199 14.0298 9.8777 14.0709 9.9017 14.1138C10.2564 14.6676 10.6882 15.168 11.184 15.6001C11.5028 15.8692 11.796 16.0972 12.06 16.2858C12.2314 16.1607 12.4028 16.0338 12.5554 15.9035C12.6394 15.8349 12.7268 15.7647 12.7988 15.6944L12.8143 15.6807C12.8897 15.6138 12.9617 15.5469 13.032 15.4801L13.0663 15.4458C13.128 15.3841 13.1914 15.3224 13.2497 15.2607C13.2703 15.2401 13.2891 15.2178 13.308 15.1972L13.4554 15.0378L13.5463 14.9281C13.5788 14.8887 13.6148 14.8492 13.6457 14.8098C13.7074 14.7327 13.7674 14.6538 13.8171 14.5767C14.4112 13.783 14.7356 12.82 14.7428 11.8287C14.7416 10.77 14.4306 9.73487 13.848 8.85094Z" fill="#4E61FF"/>
<path d="M12.2709 19.6528L12.0223 19.502C10.4297 20.2751 8.72915 21.638 7.81201 23.2425C10.5347 24.2553 13.532 24.248 16.2497 23.222C15.2572 21.6465 13.8583 20.5802 12.2709 19.6528Z" fill="#4E61FF"/>
<path d="M24 12C24.0001 9.93085 23.4651 7.89683 22.4471 6.09545C21.4291 4.29406 19.9626 2.78652 18.1899 1.7192C16.4173 0.651877 14.3988 0.0610425 12.3305 0.00406335C10.2621 -0.0529158 8.21414 0.425897 6.38544 1.39401C4.55674 2.36212 3.00945 3.78664 1.89378 5.52925C0.778122 7.27185 0.132008 9.27333 0.0181755 11.3393C-0.0956567 13.4054 0.326662 15.4657 1.24412 17.3203C2.16159 19.175 3.54302 20.7608 5.25429 21.924C5.34172 21.7868 5.49429 21.5588 5.62115 21.372C5.748 21.1851 7.26172 19.0731 9.576 17.8286C9.576 17.8286 9.52115 17.7857 9.49372 17.7617L9.44572 17.7189C8.21143 16.6457 7.35772 15.468 6.89657 14.1891C6.89657 14.1754 6.88629 14.1634 6.87943 14.148C6.64101 13.5024 6.5062 12.8231 6.48 12.1354C6.46824 11.8457 6.47225 11.5556 6.492 11.2663C6.492 11.256 6.492 11.2457 6.492 11.2371C6.492 11.1634 6.492 11.1171 6.492 11.1171C6.52177 10.7129 6.58368 10.3116 6.67715 9.91714C7.11086 8.11714 8.15143 6.75257 9.16629 5.78914H9.15772C9.84608 5.12803 10.6219 4.56449 11.4634 4.11428H11.4789C11.6384 4.03415 11.8146 3.99302 11.9931 3.99428C12.1173 3.99314 12.2407 4.01284 12.3583 4.05257C12.3583 4.05257 12.5743 4.08685 13.3354 4.61314C13.4794 4.70914 13.6389 4.82228 13.8137 4.95599C15.2417 6.04114 17.5337 8.33314 17.5337 11.8389C17.5337 11.9829 17.5337 12.1251 17.5217 12.2674C17.5217 12.324 17.5114 12.3788 17.5063 12.4389C17.5063 12.5229 17.4943 12.6103 17.484 12.6909C17.4737 12.7714 17.4634 12.8366 17.4514 12.9086C17.4394 12.9806 17.4343 13.0406 17.4223 13.104C17.4103 13.1674 17.388 13.2754 17.3691 13.3509C17.3589 13.404 17.3486 13.4571 17.3349 13.5103C17.3126 13.6011 17.2869 13.6817 17.2611 13.7777C17.2491 13.8223 17.2389 13.8669 17.2251 13.9097C17.1943 14.0057 17.1617 14.1 17.1274 14.1943C17.1154 14.2303 17.1034 14.2663 17.0897 14.3006C17.052 14.4017 17.0109 14.5011 16.968 14.6006L16.932 14.6846C16.8857 14.7891 16.8343 14.8937 16.7829 14.9966C16.7709 15.0189 16.7606 15.0411 16.7503 15.0634C16.6937 15.1697 16.6337 15.276 16.5789 15.3823C16.5686 15.3994 16.56 15.4166 16.5497 15.432C16.4846 15.5434 16.416 15.6514 16.344 15.7594L16.32 15.7954C16.2463 15.9069 16.1674 16.0183 16.0851 16.128C16.0804 16.1367 16.0747 16.1447 16.068 16.152C15.984 16.2651 15.8966 16.3766 15.804 16.4949L15.792 16.5086C15.6977 16.6217 15.6 16.7331 15.4989 16.8514C15.396 16.9646 15.2897 17.076 15.1783 17.1943C14.9497 17.416 14.7114 17.6331 14.4634 17.8457L14.6246 17.9366C16.8531 19.212 18.2983 21.2469 18.4286 21.4371C18.5589 21.6274 18.6806 21.8177 18.7611 21.9514C20.3819 20.8479 21.7071 19.3635 22.6205 17.6285C23.5339 15.8934 24.0076 13.9608 24 12Z" fill="#4E61FF"/>
<path d="M12.0171 19.5055L11.8903 19.4266C11.6006 19.2552 11.3863 19.1215 11.1531 18.9706C10.6067 18.6156 10.0797 18.2316 9.57427 17.8203C7.25999 19.0735 5.74971 21.182 5.61942 21.3723C5.48913 21.5626 5.33999 21.7872 5.25256 21.9243C5.64305 22.1912 6.04953 22.434 6.4697 22.6512C6.90213 22.8769 7.34813 23.0755 7.80513 23.246C8.72399 21.6415 10.4246 20.2786 12.0171 19.5055Z" fill="white"/>
<path d="M12.0171 19.5055L11.8903 19.4266C11.6006 19.2552 11.3863 19.1215 11.1531 18.9706C10.6067 18.6156 10.0797 18.2316 9.57427 17.8203C7.25999 19.0735 5.74971 21.182 5.61942 21.3723C5.48913 21.5626 5.33999 21.7872 5.25256 21.9243C5.63232 22.1818 6.0267 22.4171 6.4337 22.6289C6.87763 22.8618 7.33566 23.0668 7.80513 23.2426C8.72399 21.6415 10.4246 20.2786 12.0171 19.5055Z" fill="url(#paint0_linear)"/>
<path d="M18.4131 21.4163C18.2829 21.226 16.8429 19.1877 14.6091 17.9157L14.448 17.8248C14.7017 17.6123 14.94 17.3951 15.1629 17.1734C15.2743 17.0637 15.3806 16.9523 15.4834 16.8305C15.5846 16.7191 15.6823 16.6077 15.7766 16.4877L15.7886 16.474C15.8794 16.3625 15.9686 16.2511 16.0526 16.1311C16.0592 16.1238 16.065 16.1158 16.0697 16.1071C16.152 15.9974 16.2309 15.886 16.3046 15.7745L16.3286 15.7385C16.4006 15.6305 16.4691 15.5225 16.5343 15.4111C16.5446 15.3957 16.5531 15.3785 16.5634 15.3614C16.6234 15.2551 16.6834 15.1488 16.7349 15.0425C16.7451 15.0203 16.7554 14.998 16.7674 14.9757C16.8189 14.8728 16.8703 14.7683 16.9166 14.6637L16.9526 14.5797C16.9954 14.4803 17.0366 14.3808 17.0743 14.2797C17.088 14.2454 17.1 14.2094 17.112 14.1734C17.1463 14.0791 17.1789 13.9848 17.2097 13.8888C17.2234 13.846 17.2337 13.8014 17.2457 13.7568C17.2714 13.6677 17.2971 13.5854 17.3194 13.4894C17.3331 13.4363 17.3434 13.3831 17.3537 13.33C17.3726 13.2477 17.3914 13.1585 17.4069 13.0831C17.4223 13.0077 17.4257 12.9528 17.436 12.8877C17.4463 12.8225 17.46 12.7437 17.4686 12.67C17.4771 12.5963 17.484 12.4985 17.4909 12.418C17.4909 12.3614 17.5029 12.3065 17.5063 12.2465C17.5063 12.1043 17.5183 11.962 17.5183 11.818C17.5183 8.31226 15.2263 6.02026 13.7983 4.93512C13.6269 4.8014 13.4554 4.68826 13.32 4.59226C12.5589 4.06597 12.3429 4.03169 12.3429 4.03169C12.2321 3.9961 12.1164 3.97816 12 3.97854C11.8215 3.97729 11.6452 4.01841 11.4857 4.09854H11.4703C10.6303 4.55683 9.85735 5.12847 9.17315 5.7974H9.18172C8.16 6.76597 7.11943 8.13054 6.68572 9.93054C6.59225 10.325 6.53034 10.7263 6.50057 11.1305C6.50057 11.1305 6.50057 11.1768 6.50057 11.2505C6.50057 11.2505 6.50057 11.2694 6.50057 11.2797C6.48082 11.569 6.47681 11.8591 6.48857 12.1488C6.51477 12.8366 6.64958 13.5158 6.888 14.1614C6.888 14.1768 6.89829 14.1888 6.90515 14.2025C7.36629 15.4814 8.22 16.6591 9.456 17.7203L9.504 17.7631C9.53143 17.7871 9.58629 17.83 9.58629 17.83C10.0917 18.2412 10.6188 18.6252 11.1651 18.9803C11.3983 19.1311 11.6126 19.2614 11.9023 19.4363L12.0291 19.5151L12.2777 19.666C13.8651 20.5934 15.2709 21.6597 16.2514 23.2385C17.1337 22.9054 17.9733 22.4686 18.7526 21.9374C18.6651 21.7968 18.5537 21.622 18.4131 21.4163ZM13.6491 14.8094C13.6183 14.8488 13.5823 14.8883 13.5497 14.9277L13.4589 15.0374L13.3114 15.1968C13.2926 15.2174 13.2737 15.2397 13.2531 15.2603C13.1949 15.322 13.1314 15.3837 13.0697 15.4454L13.0354 15.4797C12.9651 15.5465 12.8931 15.6134 12.8177 15.6803L12.8023 15.694C12.7234 15.7643 12.6429 15.8345 12.5589 15.9031C12.4011 16.0334 12.2349 16.1603 12.0634 16.2854C11.7994 16.09 11.5063 15.862 11.1874 15.5997C10.6912 15.1655 10.2594 14.6627 9.90515 14.1065C9.88115 14.0637 9.85543 14.0225 9.83315 13.9797L9.77143 13.8751C9.44562 13.2383 9.27582 12.5333 9.276 11.818C9.2794 10.76 9.59225 9.72608 10.176 8.84369C10.5572 8.26204 11.0189 7.73739 11.5474 7.2854C11.5817 7.25626 11.6143 7.23054 11.6417 7.21169C11.7136 7.15404 11.7964 7.11148 11.8851 7.08654C11.923 7.07927 11.9616 7.07696 12 7.07969C12.0455 7.0795 12.0909 7.0841 12.1354 7.0934C12.1896 7.10724 12.2415 7.12859 12.2897 7.15683C12.2897 7.15683 12.312 7.16883 12.3549 7.19797L12.3789 7.21169C12.3884 7.21859 12.3976 7.22603 12.4063 7.23397C12.8629 7.60406 13.2666 8.03492 13.6063 8.51454C13.692 8.62769 13.7777 8.74083 13.8463 8.8574C14.4282 9.7392 14.7398 10.7718 14.7429 11.8283C14.7355 12.8175 14.4124 13.7784 13.8206 14.5711C13.7709 14.6534 13.7143 14.7323 13.6491 14.8094Z" fill="white"/>
<path opacity="0.7" d="M14.412 17.806L14.448 17.8248C14.5611 17.7288 14.6897 17.6191 14.8251 17.4957C14.9966 17.3242 15.1371 17.2008 15.168 17.1648C15.2794 17.0551 15.3857 16.9437 15.4886 16.822C15.5897 16.7105 15.6874 16.5991 15.7817 16.4791L15.7937 16.4654C15.8846 16.354 15.9737 16.2425 16.0577 16.1225C16.0644 16.1153 16.0701 16.1072 16.0748 16.0985C16.1571 15.9888 16.236 15.8774 16.3097 15.766L16.3337 15.73C16.4057 15.622 16.4743 15.514 16.5394 15.4042L16.5686 15.3528C16.6286 15.2465 16.6886 15.1402 16.74 15.034C16.7503 15.0117 16.7606 14.9894 16.7726 14.9671C16.824 14.8642 16.8754 14.7597 16.9217 14.6551L16.9577 14.5711C17.0006 14.4717 17.0417 14.3722 17.0794 14.2711C17.0931 14.2368 17.1051 14.2008 17.1171 14.1648C17.1514 14.0705 17.184 13.9762 17.2148 13.8802C17.2286 13.8374 17.2388 13.7928 17.2508 13.7482C17.2766 13.6591 17.3023 13.5768 17.3246 13.4808C17.3383 13.4277 17.3486 13.3745 17.3588 13.3214C17.3777 13.2391 17.3966 13.15 17.412 13.0745C17.4274 12.9991 17.4308 12.9442 17.4411 12.8791C17.4514 12.814 17.4651 12.7351 17.4737 12.6614C17.4823 12.5877 17.4891 12.49 17.496 12.4094C17.496 12.3528 17.508 12.298 17.5114 12.238C17.5114 12.0957 17.5234 11.9534 17.5234 11.8094C17.5234 7.49968 14.0588 5.02425 12.996 4.36768L12.3788 7.20996C12.9406 7.68714 13.4348 8.23847 13.848 8.84882C14.4309 9.73324 14.742 10.769 14.7428 11.8282C14.7355 12.8174 14.4124 13.7784 13.8206 14.5711C13.7657 14.6482 13.7057 14.7271 13.6491 14.8042C13.6183 14.8437 13.5823 14.8831 13.5497 14.9225L13.4588 15.0322L13.3114 15.1917C13.2926 15.2122 13.2737 15.2345 13.2531 15.2551C13.1948 15.3168 13.1314 15.3785 13.0697 15.4402L13.0354 15.4745C12.9651 15.5414 12.8931 15.6082 12.8177 15.6751L12.8023 15.6888C12.7234 15.7591 12.6428 15.8294 12.5588 15.898C12.4011 16.0282 12.2348 16.1551 12.0634 16.2802C12.2571 16.4208 12.7114 16.7345 13.2051 17.0448C13.8857 17.4854 13.9886 17.566 14.412 17.806Z" fill="url(#paint1_linear)"/>
</g>
<defs>
<linearGradient id="paint0_linear" x1="11.3863" y1="16.8003" x2="6.86226" y2="23.2134" gradientUnits="userSpaceOnUse">
<stop stop-color="#3750E2" stop-opacity="0.6"/>
<stop offset="0.19" stop-color="#3851E7" stop-opacity="0.57"/>
<stop offset="0.21" stop-color="#3248DB" stop-opacity="0.51"/>
<stop offset="0.26" stop-color="#2535C1" stop-opacity="0.37"/>
<stop offset="0.31" stop-color="#1924AB" stop-opacity="0.26"/>
<stop offset="0.37" stop-color="#101799" stop-opacity="0.16"/>
<stop offset="0.44" stop-color="#090D8C" stop-opacity="0.09"/>
<stop offset="0.53" stop-color="#040582" stop-opacity="0.04"/>
<stop offset="0.65" stop-color="#01017D" stop-opacity="0.01"/>
<stop offset="0.98" stop-color="#00007B" stop-opacity="0"/>
</linearGradient>
<linearGradient id="paint1_linear" x1="8.52856" y1="16.4414" x2="12.3737" y2="12.526" gradientUnits="userSpaceOnUse">
<stop offset="0.05" stop-color="#3750E2" stop-opacity="0.6"/>
<stop offset="0.43" stop-color="#3851E7" stop-opacity="0.57"/>
<stop offset="0.44" stop-color="#364DE2" stop-opacity="0.55"/>
<stop offset="0.6" stop-color="#1F2CB6" stop-opacity="0.31"/>
<stop offset="0.74" stop-color="#0E1496" stop-opacity="0.14"/>
<stop offset="0.85" stop-color="#040582" stop-opacity="0.04"/>
<stop offset="0.92" stop-color="#00007B" stop-opacity="0"/>
</linearGradient>
<clipPath id="clip0">
<rect width="24" height="24" fill="white"/>
</clipPath>
</defs>
</svg>
